<svg width="44" height="37" viewBox="0 0 44 37" fill="none" xmlns="http://www.w3.org/2000/svg">
<path fill-rule="evenodd" clip-rule="evenodd" d="M38.0653 10.0291C41.6543 12.8262 43.4228 16.6943 43.4873 21.1486C43.53 24.0977 43.0094 26.9963 41.6735 29.5432C41.0019 30.6869 40.154 31.7522 39.1061 32.7087C35.7226 35.7971 31.1823 36.8921 26.5454 36.9584C21.9086 37.0247 17.3384 36.06 13.8669 33.0696C12.3339 31.749 11.2016 30.1969 10.4019 28.4998C8.68914 28.6021 6.93357 28.1064 5.47716 26.9724L5.47517 26.9708C1.88617 24.1738 0.117681 20.3057 0.0531937 15.8514C0.0104987 12.9023 0.531349 10.0031 1.86729 7.45619C2.5389 6.31248 3.38645 5.2478 4.43433 4.29131C7.81786 1.20286 12.3582 0.10792 16.995 0.0416177C21.6319 -0.0246844 26.2021 0.939988 29.6736 3.93041C31.2066 5.25099 32.3389 6.80306 33.1386 8.50016C34.8513 8.3979 36.6069 8.89359 38.0633 10.0276L38.0653 10.0291ZM7.84064 15.6346C7.84064 17.6982 8.48915 19.1432 9.94447 20.3209C10.5975 20.8495 10.7011 21.8133 10.1728 22.4701C9.64458 23.1269 8.68705 23.2293 8.03245 22.6992C5.85555 20.935 4.79603 18.6254 4.79603 15.6346C4.79603 8.3836 8.90017 4.70693 17.0004 4.70693C25.1006 4.70693 29.2062 8.3836 29.2062 15.6346C29.2062 18.6346 28.1467 20.9457 25.9668 22.7008C25.6866 22.9268 25.3502 23.0368 25.0153 23.0368C24.5708 23.0368 24.1278 22.8413 23.8279 22.4655C23.3012 21.8072 23.4062 20.8449 24.0623 20.3179C25.5146 19.1478 26.1631 17.7028 26.1631 15.6346C26.1631 11.741 25.0747 7.76191 17.0019 7.76191C8.92909 7.76191 7.84064 11.7426 7.84064 15.6346ZM32.91 14.4401C33.4382 13.7848 34.3958 13.6794 35.0504 14.211V14.2095C37.2273 15.9737 38.2868 18.2833 38.2868 21.2741C38.2868 28.5251 34.1811 32.2018 26.0809 32.2018C17.9807 32.2018 13.8751 28.5251 13.8751 21.2741C13.8751 18.2741 14.9346 15.963 17.1145 14.2079C17.7691 13.6794 18.7282 13.7833 19.2549 14.4432C19.7816 15.1015 19.6766 16.0638 19.0205 16.5908C17.5682 17.7609 16.9197 19.2059 16.9197 21.2741C16.9197 25.1677 18.0081 29.1468 26.0809 29.1468C34.1537 29.1468 35.2422 25.1661 35.2422 21.2741C35.2422 19.2105 34.5937 17.7654 33.1383 16.5878C32.4853 16.0592 32.3818 15.0969 32.91 14.4401Z" fill="#2C46B1"/>
</svg>
