<svg width="178" height="61" viewBox="0 0 178 61" fill="none" xmlns="http://www.w3.org/2000/svg">
<path d="M13.7315 27.8067H1.87236L0.442871 29.9791H12.3019L13.7315 27.8067Z" fill="#2C46B1"/>
<path d="M26.6706 6.08371H14.8114L13.3818 8.2563H25.241L26.6706 6.08371Z" fill="#2C46B1"/>
<path d="M131.244 27.8067H119.385L117.955 29.9791H129.814L131.244 27.8067Z" fill="#2C46B1"/>
<path d="M144.182 6.08371H132.323L130.894 8.2563H142.753L144.182 6.08371Z" fill="#2C46B1"/>
<path d="M95.7466 36.4324H93.0952V38.7378H95.7466V36.4324Z" fill="#2C46B1"/>
<path d="M53.0227 40.3514L45.6468 40.3316L45.651 38.7379H48.102V36.4325H45.6572L45.7209 12.6015H50.9381L52.3678 10.429H45.7268L45.7325 8.25646H50.1435L51.5731 6.08395H45.7383L45.7498 1.7602L37.7916 1.73877L37.7876 1.74481L35.571 1.73877L35.5662 1.74613L33.2749 1.74043L30.4156 6.08486H32.7112L31.2823 8.25654L31.282 8.25704H28.986L27.5563 10.4293H29.8525L28.4233 12.6014H26.1266L13.2601 32.154H6.84469L5.41512 34.3265H11.8304L7.93771 40.2422L7.93582 40.8441H3.61658L2.18701 43.0165H7.92905L7.91281 48.2286L33.1508 48.2984L33.1347 53.8791H23.9112L22.4816 56.0516H33.1285L33.1161 60.3751L40.8627 60.3946V60.3966H50.5377L51.9673 58.2241H45.5989L45.6047 56.0516H49.3726L50.802 53.8791H45.6106L45.6254 48.3305L48.4803 48.3382L48.4804 48.3323L50.7808 48.3385V48.3324L53.0014 48.3385L53.0039 47.3616H55.1255L56.5551 45.1891H53.0098L53.0155 43.0165H57.4558L58.8855 40.8441H53.0215L53.0227 40.3514ZM33.1708 40.2979L23.3622 40.2715L27.377 34.3265H27.3771L28.8443 32.154L33.2083 25.6919L33.1708 40.2979Z" fill="#2C46B1"/>
<path d="M170.535 40.3514L163.159 40.3316L163.163 38.7379H165.614V36.4325H163.169L163.233 12.6015H168.45L169.88 10.429H163.239L163.245 8.25646H167.656L169.085 6.08395H163.251L163.262 1.7602L155.304 1.73877L155.3 1.74481L153.083 1.73877L153.078 1.74613L150.787 1.74043L147.928 6.08486H150.223L149.909 6.56275L148.794 8.25654L148.794 8.25704H146.498L145.068 10.4293H147.365L145.935 12.6014H143.639L130.772 32.1541H124.357L122.927 34.3267H129.343L125.45 40.2424L125.448 40.8442H121.129L119.699 43.0167H125.441L125.425 48.2288L150.663 48.2986L150.647 53.8793H141.423L139.994 56.0518H150.641L150.628 60.3753L158.375 60.3947V60.3968H168.05L169.479 58.2243H163.111L163.117 56.0518H166.885L168.314 53.8793H163.123L163.138 48.3307L165.992 48.3384V48.3324L168.293 48.3386V48.3326L170.513 48.3386L170.516 47.3618H172.637L174.067 45.1893H170.522L170.528 43.0167H174.968L176.397 40.8442H170.533L170.535 40.3514ZM150.683 40.2979L140.874 40.2715L144.889 34.3265L146.356 32.154L150.72 25.6919L150.683 40.2979Z" fill="#2C46B1"/>
<path d="M115.433 43.0164L116.863 40.844H111.836L111.876 25.6363H116.525L117.955 23.4638H111.882L111.892 19.7476C111.899 17.2301 111.407 14.8076 110.507 12.6013H112.752L114.181 10.4288H109.454C109.024 9.6695 108.542 8.9439 108.015 8.25629H113.673L115.103 6.08378H106.061C105.327 5.38457 104.536 4.74463 103.695 4.17115C100.722 2.14084 97.1065 0.945291 93.2492 0.9366C92.8665 0.935524 92.486 0.946285 92.108 0.968218C91.762 0.948189 91.4137 0.937428 91.0635 0.9366C90.5712 0.935193 90.0825 0.953152 89.5983 0.989652C89.1578 0.957291 88.7136 0.940076 88.266 0.939C85.6963 0.931551 83.2257 1.45049 80.9845 2.39543C78.8828 3.28151 76.9809 4.53739 75.356 6.08353H70.0368L68.6073 8.25604H73.4023C73.1747 8.55234 72.9556 8.85559 72.7457 9.16571C70.8154 12.0127 69.6423 15.4468 69.5313 19.1187H65.4271L63.9975 21.2912H69.5183L69.501 27.8065H59.8496L58.4199 29.979H69.495L69.4893 32.1539H64.8219L63.3925 34.3265H69.4835L69.4661 40.844H63.8039L62.3742 43.0164H69.5845C69.7867 44.8148 70.243 46.5431 70.9171 48.1533C71.8139 50.2959 73.0911 52.2316 74.6653 53.879H72.0713L70.6418 56.0514H77.1395C77.3119 56.1777 77.4863 56.3013 77.663 56.4219C80.6361 58.4522 84.2515 59.6478 88.1088 59.6565C88.6013 59.6579 89.09 59.6398 89.5744 59.6033C90.0147 59.6357 90.4588 59.6529 90.9064 59.6539C91.2894 59.655 91.67 59.6443 92.0482 59.6224C92.3939 59.6424 92.742 59.6531 93.092 59.6539C95.6617 59.6613 98.1323 59.1424 100.373 58.1976C103.737 56.7794 106.589 54.4139 108.612 51.4272C109.461 50.1755 110.163 48.8103 110.693 47.3613H114.998L116.428 45.1888H111.342C111.508 44.4787 111.634 43.7535 111.717 43.0162H115.433V43.0164ZM98.6208 40.9242C98.6163 42.3853 98.3205 43.7551 97.7894 45.0076C96.9935 46.8843 95.6571 48.4923 93.9822 49.6206C92.9774 50.2963 91.8595 50.8006 90.656 51.0956C90.1004 50.9598 89.5629 50.7796 89.0456 50.5587C87.1756 49.76 85.5736 48.4187 84.4492 46.7377C83.3252 45.0539 82.6765 43.0542 82.6807 40.8655L82.6982 34.3284H85.3538L86.8233 32.1562H82.704L82.7373 19.6691C82.7419 18.208 83.0376 16.8382 83.5688 15.5857C84.0359 14.484 84.6897 13.4751 85.4885 12.6012H89.2314L90.6607 10.4291H88.2786C89.0368 10.0222 89.8477 9.70708 90.7021 9.4976C91.2577 9.63342 91.7953 9.81359 92.3126 10.0346C94.1826 10.8334 95.7847 12.1746 96.9089 13.8556C98.033 15.5394 98.6817 17.5391 98.6775 19.7279L98.6208 40.9242Z" fill="#2C46B1"/>
<path d="M53.0218 40.844L53.0231 40.3514L45.6471 40.3316L45.6514 38.7379H48.1023V36.4325H45.6575L45.7213 12.6015H50.9385L52.3681 10.429H45.7271L45.7329 8.25646H50.1439L51.5735 6.08395H45.7387L45.7502 1.7602L37.7919 1.73877L37.788 1.74481L35.5713 1.73877L35.5665 1.74613L32.7122 6.08395H34.9327L33.5031 8.25646H31.2826L31.2824 8.25695L29.8529 10.4292H34.4367L33.0074 12.6013H28.4236L18.4178 27.8068H20.1946L18.765 29.979H16.9884L15.5572 32.154H8.93502L7.50545 34.3265H14.1276L10.2349 40.2422L10.2332 40.8441H5.70692L4.27734 43.0165H10.2274L10.2133 48.2291L35.4468 48.2972L35.4437 49.4676H37.7114V51.7728H35.4376L35.432 53.879L35.4262 56.0515L35.4146 60.3749L40.8631 60.3896V60.3965H50.5381L51.9677 58.224H45.5993L45.6051 56.0515H49.3729L50.8024 53.879H45.611L45.6258 48.3304V48.3245L48.4808 48.3322L50.7812 48.3384V48.3323L53.0017 48.3384L53.0043 47.3615H55.1258L56.5555 45.189H53.0101L53.0159 43.0164H57.4562L58.8859 40.844H53.0218ZM37.7696 38.7378H35.4725L35.4683 40.3041L33.1712 40.2979L23.3625 40.2715L27.3774 34.3265L28.8446 32.154L33.2086 25.6919L35.5167 22.2742L35.4788 36.4324H37.7697V38.7378H37.7696Z" fill="#B12C4D"/>
<path d="M170.534 40.844L170.535 40.3514L163.159 40.3316L163.164 38.7379H165.614V36.4325H163.17L163.233 12.6015H168.451L169.88 10.429H163.239L163.245 8.25646H167.656L169.086 6.08395H163.251L163.262 1.7602L155.304 1.73877L155.3 1.74481L153.083 1.73877L153.079 1.74613L150.224 6.08486L150.224 6.08403H152.445L152.13 6.56275L151.015 8.25654H148.795L148.794 8.25704L147.365 10.4293H151.949L150.519 12.6014H145.936L135.93 27.8069H137.707L136.277 29.9791H134.501L133.069 32.154H126.447L125.018 34.3266H131.64L127.747 40.2423L127.745 40.8442H123.219L121.79 43.0166H127.74L127.726 48.2292L152.959 48.2973L152.956 49.4677H155.224V51.7729H152.95L152.944 53.8791L152.938 56.0516L152.927 60.375L158.375 60.3897V60.3966H168.05L169.48 58.2241H163.112L163.117 56.0516H166.885L168.315 53.8791H163.123L163.138 48.3305V48.3246L165.993 48.3323L168.293 48.3385V48.3324L170.514 48.3385L170.517 47.3616H172.638L174.068 45.1891H170.522L170.528 43.0165H174.968L176.398 40.8441L170.534 40.844ZM155.282 38.7378H152.985L152.98 40.3041L150.683 40.2979L140.875 40.2715L144.89 34.3265L146.357 32.154L150.721 25.6919L153.029 22.2742L152.991 36.4324H155.282L155.282 38.7378Z" fill="#B12C4D"/>
<path d="M116.525 25.6363L117.955 23.4638H111.882L111.892 19.7477C111.9 17.2302 111.407 14.8077 110.507 12.6014H112.752L114.181 10.4289H109.455C109.024 9.66959 108.542 8.94399 108.015 8.25637H113.673L115.103 6.08387H106.061C105.327 5.38467 104.536 4.74472 103.695 4.17124C100.722 2.14093 97.1066 0.945382 93.2493 0.936692C92.8666 0.935616 92.4861 0.946372 92.1081 0.968305C91.7621 0.948275 91.4138 0.937519 91.0636 0.936692C90.5713 0.935285 90.0826 0.953244 89.5984 0.989744C87.5558 1.14385 85.594 1.62911 83.7822 2.39303C81.6794 3.27961 79.7765 4.5364 78.1511 6.08362H81.1391C80.4336 6.75517 79.7806 7.48161 79.1861 8.25612H76.1981C75.9712 8.55168 75.7529 8.8541 75.5434 9.16331C73.6126 12.0109 72.4396 15.4459 72.3291 19.1187H65.4271L63.9976 21.2913H72.316L72.287 32.1539H66.9121L65.4825 34.3265H72.2812L72.2637 40.8432V40.8439H65.8939L64.4643 43.0163H72.3825C72.5849 44.8137 73.0412 46.5413 73.7149 48.1508C74.6121 50.2944 75.8901 52.231 77.4654 53.879H82.8163C83.5755 54.6732 84.4038 55.4004 85.2918 56.0514H79.9407C80.1119 56.1769 80.2852 56.2997 80.4608 56.4195C83.0889 58.2144 86.2191 59.3565 89.5746 59.6034C90.0149 59.6358 90.459 59.653 90.9066 59.654V59.6541C91.2896 59.6552 91.6702 59.6444 92.0484 59.6224C92.3941 59.6425 92.7422 59.6532 93.0922 59.654V59.6541C95.6619 59.6615 98.1326 59.1425 100.374 58.1976C103.738 56.7795 106.59 54.414 108.613 51.4273C109.461 50.1756 110.163 48.8104 110.693 47.3614H114.999L116.428 45.1889H111.342C111.508 44.4788 111.634 43.7536 111.717 43.0163H115.433L116.863 40.8439H111.836L111.876 25.6362H116.525V25.6363ZM92.0472 51.3364C91.5721 51.2871 91.1081 51.206 90.6561 51.0956C90.1006 50.9598 89.563 50.7796 89.0457 50.5587C87.1757 49.76 85.5737 48.4187 84.4493 46.7377C83.3253 45.0539 82.6766 43.0542 82.6808 40.8655L82.6983 34.3284H85.3539L86.8234 32.1562H82.7041L82.7375 19.6691C82.742 18.208 83.0377 16.8382 83.5689 15.5857C84.0361 14.484 84.6898 13.4751 85.4886 12.6012H89.2315L90.6608 10.4291H88.2788C89.0369 10.0223 89.8478 9.70708 90.7022 9.4976C91.1592 9.38554 91.6287 9.30393 92.1089 9.25427C93.1681 9.36419 94.1723 9.63152 95.1105 10.0321C96.9804 10.831 98.5825 12.1722 99.7068 13.853C100.715 15.3626 101.34 17.1263 101.456 19.0524H99.2221V21.3576H101.471L101.419 40.9216C101.414 42.3828 101.119 43.7526 100.587 45.005C99.7915 46.8818 98.4552 48.4898 96.7802 49.618C95.3936 50.5503 93.7921 51.1563 92.0472 51.3364Z" fill="#B12C4D"/>
<path d="M50.8013 40.844L50.8026 40.3514L43.4267 40.3316L43.4774 21.3577H41.2448V19.0524H43.4835L43.5124 8.25636H47.8137L49.2432 6.08386H43.5181L43.5297 1.76011L37.788 1.74472L35.5713 1.73868L35.5665 1.74604L32.7122 6.08386H34.9327L33.5031 8.25636H31.2826L31.2824 8.25686L29.8529 10.4291H34.4367L33.0074 12.6012H28.4236L18.4178 27.8068H20.1946L18.765 29.979H16.9884L15.5572 32.1539H8.93502L7.50545 34.3265H14.1276L10.2349 40.2422L10.2332 40.8441H5.70692L4.27734 43.0165H10.2274L10.2133 48.2291L35.4468 48.2972L35.4437 49.4676H37.7114V51.7728H35.4376L35.432 53.879L35.4262 56.0515L35.4146 60.3749L40.8631 60.3896V60.3965H48.2077L49.6373 58.224H43.3787L43.3845 56.0515H47.0426L48.4721 53.879H43.3903L43.4052 48.3244V48.3184L45.6257 48.3244L48.4807 48.3321L50.7811 48.3383V48.3323L50.7838 47.3614H52.7955L53.0051 47.0428L54.2251 45.1888H50.7895L50.7952 43.0162H55.1258L56.5554 40.8438H50.8013V40.844ZM35.4725 38.7378L35.4683 40.3041V40.3101L33.1712 40.3039L21.142 40.2715L25.1568 34.3265H20.1834L21.4676 32.3748L21.6129 32.154H26.6239L33.217 22.3914L35.5254 18.9732L35.5166 22.2743L35.4787 36.4326H37.7697V38.7379H35.4725V38.7378Z" fill="#2C46B1"/>
<path d="M168.313 40.844L168.315 40.3514L160.939 40.3316L160.99 21.3577H158.757V19.0524H160.996L161.024 8.25636H165.326L166.755 6.08386H161.03L161.042 1.76011L155.3 1.74472L153.083 1.73868L153.079 1.74604L150.224 6.08477L150.224 6.08394H152.445L152.13 6.56265L151.015 8.25645H148.795L148.794 8.25694L147.365 10.4292H151.949L150.519 12.6013H145.936L135.93 27.8068H137.707L136.277 29.979H134.5L133.069 32.1539H126.447L125.018 34.3265H131.64L127.747 40.2422L127.745 40.8441H123.219L121.79 43.0165H127.74L127.726 48.2291L152.959 48.2972L152.956 49.4676H155.224V51.7728H152.95L152.944 53.879L152.938 56.0515L152.927 60.3749L158.375 60.3896V60.3965H165.72L167.15 58.224H160.891L160.897 56.0515H164.555L165.984 53.879H160.903L160.917 48.3244V48.3184L163.138 48.3244L165.993 48.3321L168.293 48.3383V48.3323L168.296 47.3614H170.308L170.517 47.0428L171.737 45.1888H168.302L168.308 43.0162H172.638L174.068 40.8438H168.313V40.844ZM152.984 38.7378L152.98 40.3041V40.3101L150.683 40.3039L138.654 40.2715L142.669 34.3265H137.695L138.98 32.3748L139.125 32.154H144.136L150.729 22.3914L153.037 18.9732L153.028 22.2743L152.991 36.4326H155.282V38.7379H152.984V38.7378Z" fill="#2C46B1"/>
<path d="M109.531 43.0164H113.103L114.532 40.844H109.65L109.691 25.6363H108.37L108.375 23.4638H109.697L109.707 19.7476C109.714 17.2301 109.221 14.8076 108.322 12.6013H106.877C106.555 11.85 106.187 11.1248 105.775 10.4288H107.269C106.838 9.6695 106.357 8.9439 105.829 8.25629H111.343L112.773 6.08378H103.998V6.20147C103.229 5.45633 102.397 4.77675 101.509 4.17115C98.8064 2.32524 95.5722 1.16942 92.1081 0.968218C91.7621 0.948189 91.4139 0.937428 91.0636 0.9366C90.5713 0.935193 90.0826 0.953152 89.5984 0.989652C87.5558 1.14376 85.594 1.62902 83.7822 2.39294C81.6794 3.27952 79.7765 4.53631 78.1511 6.08353H81.1391C80.4336 6.75509 79.7806 7.48152 79.1861 8.25604H76.1981C75.9712 8.55159 75.7529 8.85402 75.5434 9.16323C73.6126 12.0109 72.4396 15.4458 72.3291 19.1187H65.4271L63.9976 21.2912H72.316L72.287 32.1538H66.912L65.4824 34.3264H72.2811L72.2636 40.8431V40.8438H65.8938L64.4642 43.0162H72.3824C72.5848 44.8136 73.0411 46.5412 73.7148 48.1507C74.612 50.2943 75.89 52.2309 77.4653 53.8789H82.8162C83.5754 54.6731 84.4037 55.4003 85.2917 56.0513H79.9406C80.1118 56.1768 80.2851 56.2996 80.4607 56.4194C83.0889 58.2143 86.219 59.3564 89.5745 59.6033C90.0148 59.6357 90.459 59.6529 90.9065 59.6539C91.2895 59.655 91.6702 59.6443 92.0483 59.6224C94.2074 59.497 96.2807 59.0016 98.1879 58.1976C101.552 56.7794 104.404 54.4139 106.427 51.4272C107.275 50.1755 107.978 48.8103 108.508 47.3613H112.668L114.098 45.1888H109.156C109.322 44.4789 109.448 43.7537 109.531 43.0164ZM86.8599 50.5587C84.99 49.76 83.3879 48.4187 82.2636 46.7377C81.1396 45.0539 80.4909 43.0542 80.495 40.8655L80.5125 34.3284H79.6898L79.6947 32.1562H80.5184L80.5517 19.6691C80.5562 18.208 80.852 16.8382 81.3831 15.5857C82.179 13.7089 83.5155 12.1011 85.1904 10.9726C85.4741 10.7819 85.7671 10.6051 86.0682 10.4424L86.0769 10.4291H86.0928C87.1669 9.85275 88.3471 9.46052 89.606 9.29168C90.0742 9.22886 90.5531 9.19666 91.0415 9.19757C91.403 9.19865 91.7588 9.21785 92.1087 9.25427C93.1679 9.36418 94.1721 9.63151 95.1103 10.0321C96.9802 10.8309 98.5823 12.1722 99.7066 13.853C100.714 15.3626 101.34 17.1263 101.455 19.0524H99.2219V21.3576H101.471L101.419 40.9216C101.414 42.3828 101.118 43.7526 100.587 45.005C99.7914 46.8818 98.455 48.4898 96.7801 49.618C95.3937 50.5502 93.7923 51.1562 92.0474 51.3364C91.6806 51.3743 91.3077 51.3937 90.9289 51.3931H90.9289C90.4653 51.3916 90.011 51.3604 89.5667 51.3015C88.6156 51.1753 87.7105 50.9219 86.8599 50.5587ZM103.428 38.7378V36.4324H106.079V38.7378H103.428Z" fill="#2C46B1"/>
<path d="M46.689 25.6363H58.5481L59.9776 23.4638H48.1185L46.689 25.6363Z" fill="#B12C4D"/>
<path d="M164.201 25.6363H176.06L177.49 23.4638H165.631L164.201 25.6363Z" fill="#B12C4D"/>
<path d="M19.3091 19.1188H7.45L6.02051 21.2913H17.8796L19.3091 19.1188Z" fill="#2C46B1"/>
<path d="M136.821 19.1188H124.962L123.532 21.2913H135.391L136.821 19.1188Z" fill="#2C46B1"/>
</svg>
